General
Complete name                      : WWE.Friday.Night.Smackdown.2011.10.21.1080p.H.264.HD.Mp4.MM.Snaw90
Format                                  : MPEG-4
File size                                : 7.00 GiB
Duration                                : 1h 22mn


Video
ID                                         : 1
Format                                   : AVC
Duration                                 : 1h 22mn
Width                                    : 1920 pixels
Height                                   : 1080 pixels
Chroma subsampling                : 4:2:0
Stream size                            : 6.90 GiB (99%)


Audio
ID                                         : 2
Format                                   : AAC
Bit rate                                  : 152 Kbps
Channel(s)                             : 2 channels
Stream size                            : 89.4 MiB (1%)